<?xml version="1.0" standalone="no"?>
<svg width="151" height="20" viewBox="0 0 151 20" fill="none"
    xmlns="http://www.w3.org/2000/svg">
    <path d="M50.2501 15.2888L50.2188 9.13824L47.4035 14.1449H46.0271L43.2275 9.30402V15.2888H40.3652V3.68396H42.9146L46.7622 10.3816L50.516 3.68396H53.0654L53.0967 15.2888H50.2501Z" fill="#1F1F1F" />
    <path d="M58.7601 6.15413C60.1678 6.15413 61.2418 6.49675 61.9821 7.18199C62.7224 7.85618 63.0926 8.89509 63.0926 10.2987V15.2888H60.3242V14.1283C59.8967 15.0014 59.0625 15.438 57.8217 15.438C57.1648 15.438 56.5965 15.3164 56.1169 15.0733C55.6372 14.8301 55.2723 14.5041 55.022 14.0952C54.7822 13.6752 54.6623 13.1999 54.6623 12.6694C54.6623 11.8184 54.9699 11.1608 55.5851 10.6966C56.2003 10.2214 57.1492 9.98373 58.4317 9.98373H60.1209C60.0687 9.03324 59.4692 8.55799 58.3222 8.55799C57.9155 8.55799 57.5037 8.62983 57.0866 8.77351C56.6695 8.90614 56.315 9.09403 56.023 9.33718L55.022 7.19857C55.4913 6.867 56.0595 6.6128 56.7269 6.43597C57.4046 6.24808 58.0824 6.15413 58.7601 6.15413ZM58.6507 13.4486C58.9947 13.4486 59.2971 13.3602 59.5578 13.1834C59.8185 13.0065 60.0062 12.7468 60.1209 12.4042V11.625H58.8383C57.9729 11.625 57.5402 11.9289 57.5402 12.5368C57.5402 12.8131 57.6392 13.0341 57.8373 13.1999C58.0355 13.3657 58.3066 13.4486 58.6507 13.4486Z" fill="#1F1F1F" />
    <path d="M68.0495 15.438C67.3405 15.438 66.6419 15.3551 65.9537 15.1893C65.2655 15.0125 64.7129 14.7859 64.2958 14.5096L65.1873 12.3544C65.5731 12.6086 66.0319 12.8131 66.5637 12.9678C67.0955 13.1115 67.622 13.1834 68.1434 13.1834C68.623 13.1834 68.9619 13.1336 69.16 13.0341C69.3686 12.9236 69.4728 12.7689 69.4728 12.57C69.4728 12.371 69.3477 12.2329 69.0975 12.1555C68.8576 12.0671 68.4718 11.9842 67.9401 11.9068C67.2623 11.8184 66.6836 11.7024 66.2039 11.5587C65.7347 11.415 65.3281 11.1497 64.984 10.7629C64.6399 10.3761 64.4678 9.83453 64.4678 9.13824C64.4678 8.56352 64.6295 8.05512 64.9527 7.61303C65.2759 7.15989 65.7452 6.80622 66.3604 6.55201C66.986 6.28676 67.7315 6.15413 68.597 6.15413C69.2122 6.15413 69.8221 6.22045 70.4269 6.35307C71.0317 6.4857 71.5374 6.67359 71.944 6.91674L71.0525 9.05534C70.3018 8.61326 69.4885 8.39221 68.6126 8.39221C68.1434 8.39221 67.7993 8.453 67.5803 8.57457C67.3614 8.68509 67.2519 8.8343 67.2519 9.02219C67.2519 9.23218 67.3718 9.38138 67.6116 9.4698C67.8514 9.54717 68.2477 9.63006 68.8003 9.71848C69.4989 9.829 70.0776 9.9561 70.5364 10.0998C70.9952 10.2435 71.3914 10.5087 71.7251 10.8955C72.0692 11.2713 72.2412 11.8018 72.2412 12.4871C72.2412 13.0507 72.0796 13.5591 71.7564 14.0123C71.4331 14.4544 70.9535 14.8025 70.3174 15.0567C69.6918 15.3109 68.9358 15.438 68.0495 15.438Z" fill="#1F1F1F" />
    <path d="M79.3714 14.9241C79.1211 15.0899 78.8135 15.217 78.4486 15.3054C78.094 15.3938 77.7135 15.438 77.3068 15.438C76.2015 15.438 75.3517 15.1506 74.7574 14.5759C74.163 14.0012 73.8659 13.1447 73.8659 12.0063V8.98903H72.6303V6.63491H73.8659V4.29736H76.8376V6.63491H78.777V8.98903H76.8376V11.9731C76.8376 12.2936 76.9158 12.5478 77.0722 12.7357C77.239 12.9126 77.458 13.001 77.7291 13.001C78.0732 13.001 78.3756 12.907 78.6363 12.7192L79.3714 14.9241Z" fill="#1F1F1F" />
    <path d="M88.8693 10.8126C88.8693 10.8348 88.8537 11.0945 88.8224 11.5918H82.66C82.7852 12.056 83.025 12.4152 83.3795 12.6694C83.7444 12.9126 84.198 13.0341 84.7402 13.0341C85.1469 13.0341 85.4962 12.9734 85.7881 12.8518C86.0905 12.7302 86.3929 12.5313 86.6953 12.255L88.2594 13.9791C87.4356 14.9517 86.2313 15.438 84.6464 15.438C83.6558 15.438 82.7852 15.2391 82.0344 14.8412C81.2837 14.4433 80.6997 13.8907 80.2827 13.1834C79.876 12.476 79.6727 11.6747 79.6727 10.7795C79.6727 9.89531 79.8708 9.10508 80.267 8.40879C80.6737 7.70145 81.2315 7.14883 81.9406 6.75095C82.6496 6.35307 83.4473 6.15413 84.3336 6.15413C85.1782 6.15413 85.9446 6.34202 86.6327 6.7178C87.3209 7.08252 87.8631 7.61855 88.2594 8.3259C88.666 9.02219 88.8693 9.8511 88.8693 10.8126ZM84.3492 8.39221C83.8904 8.39221 83.5046 8.53036 83.1918 8.80667C82.8894 9.08297 82.6965 9.45875 82.6131 9.934H86.0853C86.0019 9.45875 85.8038 9.08297 85.491 8.80667C85.1886 8.53036 84.808 8.39221 84.3492 8.39221Z" fill="#1F1F1F" />
    <path d="M93.0704 7.38093C93.3728 6.972 93.7638 6.66806 94.2435 6.46912C94.7335 6.25913 95.2914 6.15413 95.917 6.15413V8.98903C95.6459 8.95587 95.4217 8.9393 95.2445 8.9393C94.6084 8.9393 94.1079 9.12166 93.743 9.48638C93.3885 9.85111 93.2112 10.4092 93.2112 11.1608V15.2888H90.2395V6.30334H93.0704V7.38093Z" fill="#1F1F1F" />
    <path d="M100.709 15.438C100 15.438 99.3014 15.3551 98.6132 15.1893C97.925 15.0125 97.3724 14.7859 96.9553 14.5096L97.8468 12.3544C98.2326 12.6086 98.6914 12.8131 99.2232 12.9678C99.7549 13.1115 100.281 13.1834 100.803 13.1834C101.282 13.1834 101.621 13.1336 101.819 13.0341C102.028 12.9236 102.132 12.7689 102.132 12.57C102.132 12.371 102.007 12.2329 101.757 12.1555C101.517 12.0671 101.131 11.9842 100.6 11.9068C99.9218 11.8184 99.3431 11.7024 98.8634 11.5587C98.3942 11.415 97.9875 11.1497 97.6435 10.7629C97.2994 10.3761 97.1273 9.83453 97.1273 9.13824C97.1273 8.56352 97.2889 8.05512 97.6122 7.61303C97.9354 7.15989 98.4046 6.80622 99.0198 6.55201C99.6455 6.28676 100.391 6.15413 101.256 6.15413C101.872 6.15413 102.482 6.22045 103.086 6.35307C103.691 6.4857 104.197 6.67359 104.604 6.91674L103.712 9.05534C102.961 8.61326 102.148 8.39221 101.272 8.39221C100.803 8.39221 100.459 8.453 100.24 8.57457C100.021 8.68509 99.9113 8.8343 99.9113 9.02219C99.9113 9.23218 100.031 9.38138 100.271 9.4698C100.511 9.54717 100.907 9.63006 101.46 9.71848C102.158 9.829 102.737 9.9561 103.196 10.0998C103.655 10.2435 104.051 10.5087 104.385 10.8955C104.729 11.2713 104.901 11.8018 104.901 12.4871C104.901 13.0507 104.739 13.5591 104.416 14.0123C104.093 14.4544 103.613 14.8025 102.977 15.0567C102.351 15.3109 101.595 15.438 100.709 15.438Z" fill="#1F1F1F" />
    <path d="M110.983 15.438C110.044 15.438 109.205 15.2391 108.465 14.8412C107.724 14.4433 107.146 13.8907 106.729 13.1834C106.322 12.476 106.119 11.6747 106.119 10.7795C106.119 9.88426 106.322 9.0885 106.729 8.39221C107.146 7.68487 107.724 7.13778 108.465 6.75095C109.205 6.35307 110.044 6.15413 110.983 6.15413C111.942 6.15413 112.771 6.37518 113.47 6.81727C114.168 7.2483 114.664 7.85065 114.956 8.62431L112.656 9.86768C112.271 9.06087 111.708 8.65746 110.967 8.65746C110.435 8.65746 109.992 8.84535 109.638 9.22113C109.294 9.5969 109.122 10.1164 109.122 10.7795C109.122 11.4537 109.294 11.9842 109.638 12.371C109.992 12.7468 110.435 12.9347 110.967 12.9347C111.708 12.9347 112.271 12.5313 112.656 11.7245L114.956 12.9678C114.664 13.7415 114.168 14.3494 113.47 14.7915C112.771 15.2225 111.942 15.438 110.983 15.438Z" fill="#1F1F1F" />
    <path d="M121.565 6.15413C122.618 6.15413 123.463 6.4857 124.099 7.14883C124.745 7.81197 125.069 8.81219 125.069 10.1495V15.2888H122.097V10.6634C122.097 9.43665 121.633 8.82325 120.705 8.82325C120.194 8.82325 119.782 9.00008 119.469 9.35375C119.167 9.70743 119.016 10.2379 119.016 10.9453V15.2888H116.044V2.98767H119.016V7.13226C119.339 6.81174 119.72 6.56859 120.157 6.40281C120.595 6.23703 121.065 6.15413 121.565 6.15413Z" fill="#1F1F1F" />
    <path d="M131.311 15.438C130.404 15.438 129.585 15.2391 128.855 14.8412C128.125 14.4433 127.552 13.8907 127.135 13.1834C126.728 12.476 126.525 11.6747 126.525 10.7795C126.525 9.89531 126.728 9.09955 127.135 8.39221C127.552 7.68487 128.12 7.13778 128.84 6.75095C129.569 6.35307 130.393 6.15413 131.311 6.15413C132.228 6.15413 133.052 6.35307 133.782 6.75095C134.512 7.13778 135.08 7.68487 135.487 8.39221C135.893 9.0885 136.097 9.88426 136.097 10.7795C136.097 11.6747 135.893 12.476 135.487 13.1834C135.08 13.8907 134.512 14.4433 133.782 14.8412C133.052 15.2391 132.228 15.438 131.311 15.438ZM131.311 12.9347C131.832 12.9347 132.26 12.7468 132.593 12.371C132.927 11.9842 133.094 11.4537 133.094 10.7795C133.094 10.1164 132.927 9.5969 132.593 9.22113C132.26 8.84535 131.832 8.65746 131.311 8.65746C130.789 8.65746 130.362 8.84535 130.028 9.22113C129.695 9.5969 129.528 10.1164 129.528 10.7795C129.528 11.4537 129.695 11.9842 130.028 12.371C130.362 12.7468 130.789 12.9347 131.311 12.9347Z" fill="#1F1F1F" />
    <path d="M141.728 15.438C140.82 15.438 140.002 15.2391 139.272 14.8412C138.542 14.4433 137.969 13.8907 137.552 13.1834C137.145 12.476 136.942 11.6747 136.942 10.7795C136.942 9.89531 137.145 9.09955 137.552 8.39221C137.969 7.68487 138.537 7.13778 139.256 6.75095C139.986 6.35307 140.81 6.15413 141.728 6.15413C142.645 6.15413 143.469 6.35307 144.199 6.75095C144.929 7.13778 145.497 7.68487 145.904 8.39221C146.31 9.0885 146.514 9.88426 146.514 10.7795C146.514 11.6747 146.31 12.476 145.904 13.1834C145.497 13.8907 144.929 14.4433 144.199 14.8412C143.469 15.2391 142.645 15.438 141.728 15.438ZM141.728 12.9347C142.249 12.9347 142.676 12.7468 143.01 12.371C143.344 11.9842 143.511 11.4537 143.511 10.7795C143.511 10.1164 143.344 9.5969 143.01 9.22113C142.676 8.84535 142.249 8.65746 141.728 8.65746C141.206 8.65746 140.779 8.84535 140.445 9.22113C140.111 9.5969 139.945 10.1164 139.945 10.7795C139.945 11.4537 140.111 11.9842 140.445 12.371C140.779 12.7468 141.206 12.9347 141.728 12.9347Z" fill="#1F1F1F" />
    <path d="M147.89 2.98767H150.862V15.2888H147.89V2.98767Z" fill="#1F1F1F" />
    <path d="M23.7523 0H19.8287H19.8203L17.4662 9.92605L17.4577 9.74688V7.94622C17.4577 5.64387 15.7027 3.7805 13.5342 3.7805H9.61905V13.7603C9.61905 13.7693 9.61061 13.7693 9.60217 13.7603L7.39991 9.37958C6.74177 8.05372 5.43392 7.14891 3.92356 7.14891H0V14.8174C0 17.1197 1.75505 18.9831 3.92356 18.9831C6.09206 18.9831 7.84712 17.1197 7.84712 14.8174V12.7301C7.84712 12.7211 7.86399 12.7122 7.86399 12.7211L10.0325 16.7166C10.1 16.86 10.1759 17.0033 10.2603 17.1377L10.2688 17.1466C10.9691 18.2754 12.1757 19.01 13.5426 19.01C15.4327 19.01 17.0021 17.5946 17.3818 15.7133L19.8287 5.66179V14.8353C19.8287 17.1377 21.5838 19.001 23.7523 19.001C25.9208 19.001 27.6759 17.1377 27.6759 14.8353V4.16572C27.6759 1.86337 25.9208 0 23.7523 0Z" fill="#1F1F1F" />
</svg>