<?xml version="1.0" standalone="no"?>
<svg width="64" height="64" viewBox="0 0 64 64" fill="none" xmlns="http://www.w3.org/2000/svg" color="red">
    <rect width="64" height="64" rx="32" fill="#E3E5E4" />
    <path d="M36.8301 35.64C37.5001 35.2 38.3801 35.68 38.3801 36.48V37.77C38.3801 39.04 37.3901 40.4 36.2001 40.8L33.0101 41.86C32.4501 42.05 31.5401 42.05 30.9901 41.86L27.8001 40.8C26.6001 40.4 25.6201 39.04 25.6201 37.77V36.47C25.6201 35.68 26.5001 35.2 27.1601 35.63L29.2201 36.97C30.0101 37.5 31.0101 37.76 32.0101 37.76C33.0101 37.76 34.0101 37.5 34.8001 36.97L36.8301 35.64Z" fill="#4D7565" />
    <path d="M39.98 26.4601L33.99 22.5301C32.91 21.8201 31.13 21.8201 30.05 22.5301L24.03 26.4601C22.1 27.7101 22.1 30.5401 24.03 31.8001L25.63 32.8401L30.05 35.7201C31.13 36.4301 32.91 36.4301 33.99 35.7201L38.38 32.8401L39.75 31.9401V35.0001C39.75 35.4101 40.09 35.7501 40.5 35.7501C40.91 35.7501 41.25 35.4101 41.25 35.0001V30.0801C41.65 28.7901 41.24 27.2901 39.98 26.4601Z" fill="#4D7565" />
</svg>